<svg width="127" height="30" viewBox="0 0 127 30" fill="none" xmlns="http://www.w3.org/2000/svg">
<path d="M38.5931 24.3608C38.2612 24.3608 37.9957 24.2861 37.7965 24.1367C37.5974 23.9874 37.4812 23.7882 37.448 23.5393C37.4148 23.2903 37.4646 23.0082 37.5974 22.6929L44.3438 7.55699C44.5097 7.15867 44.7172 6.87654 44.9661 6.71057C45.2317 6.54461 45.5221 6.46163 45.8374 6.46163C46.1362 6.46163 46.41 6.54461 46.659 6.71057C46.9245 6.87654 47.1403 7.15867 47.3062 7.55699L54.0526 22.6929C54.202 23.0082 54.2601 23.2986 54.2269 23.5642C54.1937 23.8131 54.0858 24.0123 53.9033 24.1616C53.7207 24.2944 53.4635 24.3608 53.1315 24.3608C52.7664 24.3608 52.476 24.2695 52.2602 24.0869C52.0445 23.9044 51.8536 23.6222 51.6877 23.2405L49.945 19.2076L51.1151 19.9047H40.51L41.6552 19.2076L39.9374 23.2405C39.7715 23.6388 39.5889 23.9293 39.3898 24.1118C39.1906 24.2778 38.9251 24.3608 38.5931 24.3608ZM45.7877 9.49876L42.0286 18.411L41.4062 17.8135H50.194L49.6214 18.411L45.8374 9.49876H45.7877ZM57.4019 24.3608C57.0036 24.3608 56.6883 24.2529 56.4559 24.0372C56.2402 23.8048 56.1323 23.4895 56.1323 23.0912V13.9798H54.7382C54.4229 13.9798 54.1739 13.8968 53.9914 13.7308C53.8088 13.5483 53.7175 13.3076 53.7175 13.0089C53.7175 12.6936 53.8088 12.4529 53.9914 12.2869C54.1739 12.121 54.4229 12.038 54.7382 12.038H56.8542L56.1323 12.7102V11.8139C56.1323 10.1709 56.5389 8.93448 57.3521 8.10467C58.1653 7.25825 59.352 6.76036 60.912 6.611L61.6838 6.56121C61.9659 6.52801 62.19 6.5695 62.3559 6.68568C62.5219 6.80185 62.6298 6.95122 62.6796 7.13378C62.7293 7.31634 62.7293 7.5072 62.6796 7.70635C62.6464 7.88891 62.5634 8.05488 62.4306 8.20424C62.2978 8.35361 62.1319 8.43659 61.9327 8.45319L61.4597 8.47808C60.4805 8.56107 59.7669 8.8432 59.3188 9.3245C58.8707 9.7892 58.6466 10.5028 58.6466 11.4654V12.4363L58.2981 12.038H61.0614C61.4099 12.038 61.6672 12.121 61.8331 12.2869C62.0157 12.4529 62.107 12.6936 62.107 13.0089C62.107 13.3076 62.0157 13.5483 61.8331 13.7308C61.6672 13.8968 61.4099 13.9798 61.0614 13.9798H58.6466V23.0912C58.6466 23.9376 58.2317 24.3608 57.4019 24.3608ZM64.4502 24.3608C64.0519 24.3608 63.7365 24.2529 63.5042 24.0372C63.2884 23.8048 63.1806 23.4895 63.1806 23.0912V13.9798H61.7865C61.4711 13.9798 61.2222 13.8968 61.0396 13.7308C60.8571 13.5483 60.7658 13.3076 60.7658 13.0089C60.7658 12.6936 60.8571 12.4529 61.0396 12.2869C61.2222 12.121 61.4711 12.038 61.7865 12.038H63.9025L63.1806 12.7102V11.8139C63.1806 10.1709 63.5872 8.93448 64.4004 8.10467C65.2136 7.25825 66.4002 6.76036 67.9603 6.611L68.732 6.56121C69.0142 6.52801 69.2382 6.5695 69.4042 6.68568C69.5701 6.80185 69.678 6.95122 69.7278 7.13378C69.7776 7.31634 69.7776 7.5072 69.7278 7.70635C69.6946 7.88891 69.6116 8.05488 69.4789 8.20424C69.3461 8.35361 69.1801 8.43659 68.981 8.45319L68.508 8.47808C67.5288 8.56107 66.8152 8.8432 66.3671 9.3245C65.919 9.7892 65.6949 10.5028 65.6949 11.4654V12.4363L65.3464 12.038H68.1097C68.4582 12.038 68.7154 12.121 68.8814 12.2869C69.064 12.4529 69.1552 12.6936 69.1552 13.0089C69.1552 13.3076 69.064 13.5483 68.8814 13.7308C68.7154 13.8968 68.4582 13.9798 68.1097 13.9798H65.6949V23.0912C65.6949 23.9376 65.28 24.3608 64.4502 24.3608ZM75.3293 24.4106C74.0016 24.4106 72.8564 24.1616 71.8938 23.6637C70.9478 23.1493 70.2093 22.4273 69.6782 21.4979C69.1637 20.5519 68.9065 19.4317 68.9065 18.1372C68.9065 16.8758 69.1637 15.7722 69.6782 14.8262C70.1927 13.8802 70.898 13.1417 71.7943 12.6106C72.6905 12.0795 73.7111 11.8139 74.8563 11.8139C75.7027 11.8139 76.4578 11.955 77.1217 12.2372C77.7855 12.5027 78.3498 12.901 78.8145 13.4321C79.2958 13.9466 79.6526 14.5772 79.885 15.3241C80.1339 16.0709 80.2584 16.909 80.2584 17.8384C80.2584 18.1206 80.1754 18.3363 80.0094 18.4857C79.8435 18.6185 79.5945 18.6848 79.2626 18.6848H70.898V17.1414H78.5656L78.1424 17.4899C78.1424 16.6601 78.0179 15.9547 77.7689 15.3739C77.5366 14.793 77.1798 14.3532 76.6985 14.0545C76.2338 13.7391 75.6529 13.5815 74.9559 13.5815C74.1758 13.5815 73.512 13.764 72.9643 14.1291C72.4332 14.4943 72.0266 15.0004 71.7445 15.6477C71.4623 16.295 71.3213 17.0501 71.3213 17.9131V18.0625C71.3213 19.523 71.6615 20.6266 72.3419 21.3734C73.039 22.1037 74.0431 22.4688 75.3542 22.4688C75.8521 22.4688 76.3748 22.4024 76.9225 22.2696C77.4868 22.1369 78.0179 21.9128 78.5158 21.5975C78.7979 21.4315 79.0469 21.3568 79.2626 21.3734C79.495 21.39 79.6775 21.4647 79.8103 21.5975C79.9597 21.7303 80.0509 21.8962 80.0841 22.0954C80.1173 22.2945 80.0841 22.502 79.9845 22.7177C79.885 22.9169 79.7107 23.0995 79.4618 23.2654C78.8975 23.6471 78.2419 23.9376 77.4951 24.1367C76.7483 24.3193 76.0263 24.4106 75.3293 24.4106ZM83.1738 24.3608C82.7755 24.3608 82.4684 24.2529 82.2527 24.0372C82.0369 23.8048 81.929 23.4895 81.929 23.0912V13.1334C81.929 12.7185 82.0369 12.4031 82.2527 12.1874C82.4684 11.9716 82.7672 11.8637 83.1489 11.8637C83.5472 11.8637 83.8459 11.9716 84.0451 12.1874C84.2608 12.4031 84.3687 12.7185 84.3687 13.1334V15.1747L84.0949 14.627C84.4268 13.7474 84.9413 13.0587 85.6383 12.5608C86.3354 12.0629 87.1735 11.8139 88.1527 11.8139C89.165 11.8139 89.9866 12.0546 90.6172 12.5359C91.2479 13.0172 91.6794 13.7557 91.9117 14.7515H91.5632C91.8785 13.8387 92.4179 13.1251 93.1814 12.6106C93.9448 12.0795 94.8327 11.8139 95.8451 11.8139C96.7745 11.8139 97.5379 11.9965 98.1354 12.3616C98.7328 12.7102 99.1809 13.2495 99.4797 13.9798C99.7784 14.6934 99.9278 15.5979 99.9278 16.6933V23.0912C99.9278 23.4895 99.8116 23.8048 99.5793 24.0372C99.3635 24.2529 99.0565 24.3608 98.6582 24.3608C98.2598 24.3608 97.9528 24.2529 97.7371 24.0372C97.5213 23.8048 97.4134 23.4895 97.4134 23.0912V16.8177C97.4134 15.7888 97.2309 15.0336 96.8657 14.5523C96.5172 14.0711 95.9364 13.8304 95.1231 13.8304C94.2103 13.8304 93.4884 14.1457 92.9573 14.7764C92.4262 15.4071 92.1607 16.2784 92.1607 17.3903V23.0912C92.1607 23.4895 92.0528 23.8048 91.8371 24.0372C91.6213 24.2529 91.3143 24.3608 90.916 24.3608C90.5176 24.3608 90.2023 24.2529 89.97 24.0372C89.7542 23.8048 89.6463 23.4895 89.6463 23.0912V16.8177C89.6463 15.7888 89.4721 15.0336 89.1236 14.5523C88.775 14.0711 88.1942 13.8304 87.3809 13.8304C86.4681 13.8304 85.7462 14.1457 85.2151 14.7764C84.7006 15.4071 84.4434 16.2784 84.4434 17.3903V23.0912C84.4434 23.9376 84.0202 24.3608 83.1738 24.3608ZM103.568 24.3359C103.169 24.3359 102.862 24.2197 102.647 23.9874C102.431 23.7384 102.323 23.3982 102.323 22.9667V13.2578C102.323 12.8263 102.431 12.4944 102.647 12.2621C102.862 12.0297 103.169 11.9135 103.568 11.9135C103.966 11.9135 104.273 12.0297 104.489 12.2621C104.721 12.4944 104.837 12.8263 104.837 13.2578V22.9667C104.837 23.3982 104.729 23.7384 104.514 23.9874C104.298 24.2197 103.983 24.3359 103.568 24.3359ZM103.568 9.3245C103.07 9.3245 102.68 9.20003 102.398 8.95108C102.132 8.70213 101.999 8.35361 101.999 7.90551C101.999 7.44081 102.132 7.09229 102.398 6.85994C102.68 6.611 103.07 6.48652 103.568 6.48652C104.066 6.48652 104.447 6.611 104.713 6.85994C104.995 7.09229 105.136 7.44081 105.136 7.90551C105.136 8.35361 104.995 8.70213 104.713 8.95108C104.447 9.20003 104.066 9.3245 103.568 9.3245ZM112.434 24.4106C111.438 24.4106 110.6 24.2363 109.92 23.8878C109.239 23.5393 108.733 23.0248 108.401 22.3443C108.069 21.6639 107.903 20.8341 107.903 19.8549V13.9798H106.41C106.078 13.9798 105.821 13.8968 105.638 13.7308C105.455 13.5483 105.364 13.3076 105.364 13.0089C105.364 12.6936 105.455 12.4529 105.638 12.2869C105.821 12.121 106.078 12.038 106.41 12.038H107.903V9.47387C107.903 9.05896 108.011 8.74363 108.227 8.52787C108.459 8.31212 108.775 8.20424 109.173 8.20424C109.571 8.20424 109.878 8.31212 110.094 8.52787C110.31 8.74363 110.418 9.05896 110.418 9.47387V12.038H113.33C113.662 12.038 113.92 12.121 114.102 12.2869C114.285 12.4529 114.376 12.6936 114.376 13.0089C114.376 13.3076 114.285 13.5483 114.102 13.7308C113.92 13.8968 113.662 13.9798 113.33 13.9798H110.418V19.6557C110.418 20.5353 110.6 21.1992 110.965 21.6473C111.347 22.0954 111.961 22.3194 112.808 22.3194C113.106 22.3194 113.364 22.2945 113.579 22.2448C113.812 22.1784 114.003 22.1369 114.152 22.1203C114.334 22.1203 114.484 22.1867 114.6 22.3194C114.716 22.4356 114.774 22.668 114.774 23.0165C114.774 23.2654 114.724 23.4978 114.625 23.7135C114.542 23.9293 114.384 24.0703 114.152 24.1367C113.953 24.2031 113.679 24.2612 113.33 24.311C112.998 24.3774 112.7 24.4106 112.434 24.4106ZM118.261 28.8418C117.962 28.8418 117.714 28.7588 117.514 28.5929C117.332 28.4435 117.224 28.236 117.191 27.9705C117.174 27.7215 117.224 27.4477 117.34 27.149L119.033 23.3401V24.4106L114.378 13.5815C114.262 13.2827 114.22 13.0006 114.253 12.735C114.286 12.4695 114.411 12.2621 114.627 12.1127C114.842 11.9467 115.133 11.8637 115.498 11.8637C115.813 11.8637 116.062 11.9384 116.245 12.0878C116.427 12.2372 116.593 12.4944 116.743 12.8595L120.502 22.1452H119.805L123.614 12.8595C123.763 12.4778 123.937 12.2206 124.136 12.0878C124.335 11.9384 124.609 11.8637 124.958 11.8637C125.257 11.8637 125.489 11.9467 125.655 12.1127C125.837 12.2621 125.945 12.4695 125.979 12.735C126.028 12.984 125.987 13.2578 125.854 13.5566L119.63 27.8709C119.464 28.2526 119.274 28.5099 119.058 28.6426C118.859 28.7754 118.593 28.8418 118.261 28.8418Z" fill="#31728D"/>
<g clip-path="url(#clip0_1250_336)">
<path fill-rule="evenodd" clip-rule="evenodd" d="M12.9335 3.65692C10.3135 2.32619 7.86661 2.22476 6.04696 3.2732C4.22795 4.32126 3.09351 6.48498 2.93858 9.4129C2.78436 12.3272 3.6263 15.8314 5.57038 19.192C7.27636 22.1411 9.50317 24.4122 11.7849 25.8191C11.4077 24.8752 11.1982 23.8327 11.1413 22.7569C11.0006 20.0986 11.7651 17.0645 13.3984 14.2412C14.7965 11.8247 16.6469 9.88161 18.6411 8.61503C16.938 6.3661 14.9319 4.67198 12.9335 3.65692ZM20.0246 10.6843C18.3916 11.709 16.7887 13.3508 15.553 15.4868C14.1252 17.9547 13.5151 20.5153 13.6268 22.6254C13.7392 24.7493 14.5567 26.2483 15.7944 26.9614C16.2456 27.2214 16.7595 27.3809 17.3225 27.4321C18.1642 27.3684 18.9409 27.1364 19.6281 26.7404C21.0776 25.9053 22.0924 24.3615 22.5233 22.2871C22.6332 21.7584 22.705 21.1952 22.7365 20.6004C22.8907 17.6861 22.0488 14.1819 20.1047 10.8216C20.0782 10.7757 20.0514 10.7299 20.0246 10.6843ZM17.3092 29.9275C15.432 30.0231 13.4686 29.5168 11.6144 28.5751C8.51897 27.0028 5.56542 24.1536 3.41575 20.4375C1.26615 16.7216 0.269902 12.7439 0.453121 9.28147C0.635618 5.83273 2.01424 2.72506 4.80404 1.11764C7.5932 -0.4894 10.9781 -0.127041 14.061 1.43884C15.3189 2.07779 16.5534 2.92761 17.72 3.96077C17.7256 3.96557 17.7312 3.97043 17.7367 3.97535C18.8702 4.98156 19.9417 6.16234 20.9087 7.49442C22.9268 6.77534 25.0541 6.74962 26.8793 7.80151M24.9435 22.8641C25.0912 22.176 25.1834 21.4615 25.222 20.7318C25.4039 17.2956 24.4243 13.3519 22.3087 9.66051C23.5945 9.32027 24.7396 9.44021 25.6363 9.95702L25.6365 9.95715C26.8746 10.6703 27.6922 12.1694 27.8046 14.2931C27.9163 16.4033 27.3062 18.9639 25.8784 21.4317C25.5859 21.9375 25.2727 22.4155 24.9435 22.8641ZM17.3092 29.9275C18.7937 30.0128 20.3359 29.6144 21.7725 28.8847C24.1489 27.6777 26.3996 25.5006 28.033 22.6773C29.6664 19.8541 30.4308 16.8199 30.2901 14.1616C30.15 11.5171 29.0883 9.07416 26.8795 7.80163" fill="#31728D"/>
</g>
<defs>
<clipPath id="clip0_1250_336">
<rect width="30" height="30" fill="white" transform="translate(0.348511)"/>
</clipPath>
</defs>
</svg>
